<svg width="73" height="72" viewBox="0 0 73 72" fill="none" xmlns="http://www.w3.org/2000/svg">
<path d="M69.4583 21.7841L68.5753 21.9394L68.0708 18.5664C67.8636 17.0533 66.3139 16.0821 65.0225 16.68L63.9924 12.6926C63.7882 11.9129 63.2536 11.2919 62.5629 11.0275C61.6379 10.6377 60.6888 11.1167 59.977 11.7807C58.1811 13.1881 54.2678 16.3232 51.6821 18.1534C53.4901 15.983 55.0848 13.634 56.4002 11.0936C56.7276 10.4593 56.5263 9.65323 55.9497 9.28982C55.3761 8.92973 54.6403 9.15107 54.3129 9.78536C52.4118 13.4623 49.9342 16.7527 46.946 19.5704C46.4084 20.0626 46.3663 21.0835 46.952 21.5426C46.4685 22.2364 46.8499 23.3893 47.6367 23.5677C46.7808 23.8848 46.5796 25.2294 47.3094 25.8175C46.2672 26.5608 46.9159 28.4538 48.1743 28.206C51.7572 27.5849 66.3203 25.0114 69.6809 24.4167V62.6197L45.6787 66.8352V39.1935C45.6516 37.4657 43.3031 37.4492 43.2761 39.1935V68.3609C43.177 68.6483 42.1138 69.3882 40.2488 69.3882C38.3748 69.3882 37.3086 68.6383 37.2215 68.3839V48.6152C37.1975 46.8807 34.8429 46.8774 34.8189 48.6152V66.8346L10.8167 62.6191V48.5886C10.8167 47.8585 10.2791 47.2672 9.61537 47.2672C8.95165 47.2672 8.41406 47.8585 8.41406 48.5886V62.7545C8.41406 63.9801 9.21296 65.0141 10.3152 65.209L35.1008 69.5598C36.3802 72.8139 44.1169 72.8139 45.3932 69.5598L70.182 65.209C71.2812 65.0141 72.0801 63.9801 72.0801 62.7545V24.2343C72.1041 22.7444 70.8127 21.5254 69.4613 21.7798L69.4583 21.7841ZM55.7215 18.355C58.3434 16.3266 60.1273 14.9159 61.74 13.6407L62.8002 17.7405C58.4575 19.7954 53.4212 21.761 49.0004 23.1221C51.2198 21.6719 53.4752 20.0795 55.7217 18.3517L55.7215 18.355ZM52.2648 24.8234C56.6345 23.3203 61.5869 21.3084 65.7317 19.2106L66.2032 22.3589L52.265 24.8202L52.2648 24.8234Z" fill="#CCA509"/>
<path d="M51.1032 42.7993L64.8368 40.7842C65.954 40.6223 66.795 39.5618 66.795 38.3229V30.2092C66.822 28.7523 65.5576 27.5201 64.2392 27.748L50.5055 29.7632C49.3883 29.9284 48.5474 30.9855 48.5474 32.2244V40.3381C48.5174 41.795 49.7968 43.0273 51.1032 42.7993ZM50.953 32.3665L64.3953 30.3943V38.1874L50.953 40.1597V32.3665Z" fill="#CCA509"/>
<path d="M22.8244 50.0844C35.411 50.0844 45.6495 38.8227 45.6495 24.9765C44.3972 -8.33059 1.24936 -8.32044 0 24.9765C0 38.8219 10.237 50.0844 22.8244 50.0844ZM4.80444 23.6488C4.77441 23.6554 2.46188 23.6554 2.46188 23.6554C3.06554 12.3244 11.3212 3.24213 21.6228 2.57824V5.15508C21.6228 5.88517 22.1603 6.47652 22.8241 6.47652C23.4938 6.47652 24.0314 5.88517 24.0314 5.15508C24.0254 5.12204 24.0254 2.57824 24.0254 2.57824C34.3262 3.24227 42.5827 12.3235 43.1862 23.6554H40.8437C40.18 23.6554 39.6424 24.2467 39.6424 24.9768C39.6424 25.7135 40.18 26.3048 40.8437 26.3048C40.8737 26.2982 43.1862 26.2982 43.1862 26.2982C42.5826 37.6292 34.327 46.7115 24.0254 47.3754V44.7985C24.0254 44.0684 23.4878 43.4771 22.8241 43.4771C22.1543 43.4771 21.6168 44.0684 21.6168 44.7985C21.6228 44.8316 21.6228 47.3754 21.6228 47.3754C11.3219 46.7113 3.06542 37.6301 2.46188 26.2982H4.80444C6.38716 26.2685 6.38117 23.6751 4.80444 23.6488Z" fill="#CCA509"/>
<path d="M14.3882 40.9865C12.9947 40.1672 11.8534 42.4268 13.2229 43.2957C14.6134 44.1316 15.7667 41.8587 14.3882 40.9865Z" fill="#CCA509"/>
<path d="M7.21709 36.2075C9.22028 36.0622 8.45445 32.7784 6.63446 33.7232C5.55932 34.3212 6.02479 36.2571 7.21709 36.2075Z" fill="#CCA509"/>
<path d="M6.63298 16.2234C8.0175 17.0394 9.17675 14.7798 7.80123 13.9076C6.40472 13.0883 5.26346 15.3612 6.63298 16.2234Z" fill="#CCA509"/>
<path d="M13.8167 9.13091C15.8229 8.98556 15.0571 5.70835 13.2371 6.6532C12.1439 7.26767 12.6244 9.18047 13.8167 9.13091Z" fill="#CCA509"/>
<path d="M31.2543 8.96687C32.6388 9.78617 33.792 7.52982 32.4195 6.65762C31.032 5.8119 29.8817 8.12445 31.2543 8.96687Z" fill="#CCA509"/>
<path d="M38.4333 16.3939C40.4425 16.2453 39.6587 12.9615 37.8447 13.9129C36.7666 14.5208 37.241 16.4468 38.4333 16.3939Z" fill="#CCA509"/>
<path d="M39.0154 33.732C37.6219 32.9193 36.4777 35.179 37.8472 36.0478C39.2377 36.8705 40.388 34.5976 39.0154 33.732Z" fill="#CCA509"/>
<path d="M31.2458 40.9909C29.8733 41.863 31.0266 44.1194 32.4111 43.3002C33.7956 42.4478 32.6243 40.1551 31.2458 40.9909Z" fill="#CCA509"/>
<path d="M22.8259 28.9434C23.5948 28.9434 24.3036 28.6725 24.8892 28.2199L30.5353 32.6599C31.0699 33.0795 31.8238 32.9506 32.2112 32.3527C32.5986 31.758 32.4724 30.9354 31.9319 30.5093L26.2737 26.0593C26.6311 24.8634 26.3338 23.4528 25.631 22.5212L29.8476 15.1046C30.199 14.4868 30.0278 13.6708 29.4662 13.2843C28.9016 12.8945 28.1628 13.0861 27.8114 13.7039L23.6008 21.1106C18.3962 20.1096 17.5463 28.6725 22.823 28.9401L22.8259 28.9434ZM22.8259 23.6576C24.4057 23.6873 24.4057 26.2707 22.8259 26.3005C21.2462 26.2708 21.2462 23.6874 22.8259 23.6576Z" fill="#CCA509"/>
</svg>
