<svg width="72" height="68" viewBox="0 0 72 68" fill="none" xmlns="http://www.w3.org/2000/svg">
<path d="M38.2526 13.3398L37.2611 13.0846C37.0818 13.0846 37.0818 12.9155 36.9904 12.9155C36.9904 12.8293 36.899 12.7465 36.9904 12.5774C37.0818 12.4084 37.2611 12.2393 37.5318 12.3222L38.7904 12.6603C39.2404 12.7465 39.7819 12.4912 39.8697 12.0669C39.9611 11.6427 39.6904 11.1322 39.2404 11.0493L38.4318 10.8803V10.456C38.4318 10.0317 38.0732 9.60742 37.5317 9.60742C37.0817 9.60742 36.6317 9.94553 36.6317 10.456V10.8803C36.0024 11.1355 35.461 11.6427 35.2817 12.2394C35.1024 12.7498 35.1903 13.3432 35.461 13.7675C35.7317 14.1918 36.1817 14.616 36.811 14.7023L37.8025 14.9575C37.9818 14.9575 37.9818 15.0437 38.0732 15.1266C38.0732 15.2127 38.1646 15.2956 38.0732 15.4647C38.0732 15.6337 37.9818 15.6337 37.8939 15.7199C37.8025 15.7199 37.7146 15.8061 37.5353 15.7199L36.2767 15.3818C35.8267 15.2956 35.2852 15.5508 35.1974 15.9751C35.106 16.3994 35.3767 16.9099 35.8267 16.9927L36.6353 17.1618V17.5861C36.6353 18.0104 36.9939 18.4346 37.5353 18.4346C37.9854 18.4346 38.4354 18.0965 38.4354 17.5861V17.1618C38.5268 17.1618 38.7061 17.0756 38.794 16.9927C39.3354 16.7375 39.694 16.3132 39.7854 15.7199C39.9647 15.2094 39.8768 14.616 39.6061 14.1918C39.244 13.7642 38.794 13.426 38.2526 13.3398Z" fill="#253EED"/>
<path d="M6.65698 53.3916C6.29837 53.0535 5.75695 53.0535 5.39838 53.3916L0.268955 58.2278C-0.0896516 58.5659 -0.0896516 59.0763 0.268955 59.4144C0.627561 59.7525 1.16898 59.7525 1.52755 59.4144L6.02768 55.1715L13.4986 62.2154L8.99849 66.4582C8.63988 66.7964 8.63988 67.3068 8.99849 67.6449C9.17779 67.8139 9.35709 67.9001 9.6278 67.9001C9.89851 67.9001 10.0778 67.8139 10.2571 67.6449L15.2987 62.812C15.6573 62.4739 15.6573 61.9634 15.2987 61.6254L16.4695 60.5215L27.2698 60.1834C28.4405 60.0972 29.5198 59.5901 30.1491 58.6553L39.6912 45.7578C40.2326 45.0783 40.3205 44.1469 39.8705 43.3811C39.6912 43.043 39.4205 42.7016 39.0619 42.5326C38.5205 42.1945 37.9826 42.1083 37.3533 42.1945V25.223C37.3533 24.7987 36.9947 24.3744 36.4533 24.3744L22.6784 24.3711H2.78959C2.33957 24.3711 1.88956 24.7092 1.88956 25.2197V51.8632C1.88956 52.2875 2.24817 52.7118 2.78959 52.7118H8.36903L7.01899 53.9846L6.65698 53.3916ZM17.4573 25.9852H21.7781V34.6398L20.2488 33.2807C20.0695 33.1116 19.8902 33.0255 19.6195 33.0255C19.3488 33.0255 19.1695 33.1116 18.9902 33.2807L17.4609 34.6398L17.4573 25.9852ZM3.68959 50.9315V25.9852H15.7481V36.5058C15.7481 36.8439 15.9274 37.0991 16.2896 37.2682C16.6482 37.4372 17.0103 37.3544 17.281 37.0991L19.7104 34.9777L22.1397 37.0991C22.319 37.2682 22.4983 37.3544 22.769 37.3544C22.8605 37.3544 23.0398 37.3544 23.1277 37.2682C23.4863 37.0991 23.6691 36.8439 23.6691 36.5058V25.9852H35.7276V43.0432L27.8981 50.508C27.3567 49.9975 26.6395 49.7456 25.8273 49.7456H21.1479C20.2479 49.7456 19.2564 49.5766 18.2686 49.3213C17.1892 48.9832 16.1099 48.897 14.9392 48.9832C12.6891 49.1523 11.0683 50.1699 10.1683 50.9356L3.68959 50.9315ZM10.1691 53.222L11.1605 52.3734C11.7898 51.7801 13.1399 50.8453 15.2106 50.6763C16.1107 50.5901 16.9193 50.6763 17.8193 50.9315C18.99 51.2696 20.0693 51.442 21.1487 51.442H25.8281C26.2781 51.442 26.7281 51.6972 26.9074 52.1215C26.9988 52.2906 26.9988 52.3767 26.9988 52.5458C26.9988 53.1391 26.4574 53.6496 25.828 53.6496H19.3486C18.8986 53.6496 18.4485 53.9877 18.4485 54.4982C18.4485 54.9225 18.8071 55.3468 19.3486 55.3468H25.828C27.4488 55.3468 28.7988 54.0739 28.7988 52.5458C28.7988 52.3767 28.7988 52.2077 28.7074 52.1215L37.0784 44.0601L37.1698 43.9739C37.4405 43.8048 37.7991 43.7186 38.0698 43.8877C38.1612 43.9739 38.2491 44.0567 38.3405 44.1429C38.4319 44.3982 38.4319 44.6534 38.2491 44.9053L28.7071 57.7205C28.3485 58.231 27.807 58.4829 27.1777 58.5691L16.0192 58.9072H15.9278C15.8364 58.9072 15.8364 58.9072 15.7485 58.9934C15.6571 58.9934 15.6571 59.0795 15.5692 59.0795C15.5692 59.0795 15.4778 59.0795 15.4778 59.1657L14.1278 60.4386L8.36903 55.0091L10.1691 53.222Z" fill="#253EED"/>
<path d="M71.1007 6.1262C71.5508 6.1262 72.0008 5.7881 72.0008 5.27763C72.0008 4.85334 71.6422 4.42906 71.1007 4.42906H63.8091C63.3591 4.42906 62.9091 4.76716 62.9091 5.27763V5.36381H59.1297L49.8585 0.441401C48.8671 -0.0690676 47.6085 -0.151939 46.5291 0.272348L31.5869 6.3814H25.2867C24.8367 6.3814 24.3867 6.71951 24.3867 7.22998V20.6383C24.3867 21.0626 24.7453 21.4869 25.2867 21.4869H49.6792C50.1292 21.4869 50.5793 21.1488 50.5793 20.6383V16.9059C50.6707 16.9921 50.7586 16.9921 50.9379 16.9921C51.9293 17.4164 53.0086 17.6716 54.1794 17.6716H54.4501C56.7002 17.6716 58.3209 16.8231 59.3088 16.2297L63.0003 16.2264V16.8198C63.0003 17.244 63.359 17.6683 63.9004 17.6683H71.1006C71.5506 17.6683 72.0006 17.3302 72.0006 16.8198C72.0006 16.3093 71.642 15.9712 71.1006 15.9712H64.709V6.12603L71.1007 6.1262ZM26.1913 8.0786H28.7999C28.4413 9.26525 27.4499 10.2 26.1913 10.5381V8.0786ZM26.1913 19.8721V17.4126C27.4499 17.7507 28.4413 18.6854 28.7999 19.8721H26.1913ZM44.4591 19.8721H30.5087C30.1501 17.7507 28.3501 16.1397 26.1 15.7983V12.2349C28.3501 11.8968 30.0587 10.1997 30.5087 8.16108H44.3673C44.5466 9.00966 44.9087 9.77202 45.4466 10.4516L44.188 10.2825C42.5672 10.1134 41.1294 11.2173 40.8586 12.6592C40.7672 13.4216 40.95 14.1011 41.4879 14.6944C42.0294 15.2878 42.6587 15.6292 43.4673 15.712L47.3381 16.1363C45.8088 16.902 44.7298 18.2612 44.4591 19.8721ZM48.7799 19.8721H46.1713C46.5299 18.6854 47.5213 17.7507 48.7799 17.4126V19.8721ZM63.0012 14.6977H58.9511H58.8597H58.6804C58.589 14.6977 58.589 14.7839 58.5011 14.7839H58.4097C57.689 15.2944 56.2511 16.0568 54.1803 16.0568C53.2803 16.0568 52.4717 15.8877 51.6595 15.4634C50.5802 15.0392 49.4094 14.701 48.418 14.6149L43.8264 14.1044C43.4678 14.1044 43.1971 13.9353 43.0178 13.6801C42.8385 13.4249 42.7471 13.1696 42.7471 12.8315C42.7471 12.4934 42.9264 12.2382 43.1971 12.0691C43.4678 11.9001 43.7385 11.8139 44.0971 11.8139L50.5766 12.5763C51.0266 12.6625 51.4766 12.3211 51.568 11.8968C51.6595 11.4725 51.2973 11.0482 50.8473 10.962H50.668V7.22962C50.668 6.80533 50.3094 6.38105 49.768 6.38105H36.0921L47.3424 1.8001C47.9717 1.54487 48.601 1.63105 49.1425 1.88629L58.5927 6.97773H58.6842H58.7756H58.9549L63.0015 6.97442L63.0012 14.6977ZM46.259 8.07818H48.8676V10.5377C47.5211 10.1996 46.5296 9.26482 46.259 8.07818Z" fill="#253EED"/>
<path d="M6.65784 46.1796H12.4166C12.8666 46.1796 13.3166 45.8415 13.3166 45.331C13.3166 44.9067 12.958 44.4824 12.4166 44.4824H6.65784C6.20783 44.4824 5.75781 44.8205 5.75781 45.331C5.84922 45.8415 6.20783 46.1796 6.65784 46.1796Z" fill="#253EED"/>
<path d="M11.0704 48.2197C11.0704 47.7954 10.7118 47.3711 10.1704 47.3711H6.66174C6.21173 47.3711 5.76172 47.7092 5.76172 48.2197C5.76172 48.644 6.12032 49.0682 6.66174 49.0682H10.1704C10.7083 49.0682 11.0704 48.7268 11.0704 48.2197Z" fill="#253EED"/>
</svg>
