<svg width="66" height="72" viewBox="0 0 66 72" fill="none" xmlns="http://www.w3.org/2000/svg">
<path d="M32.7261 71.9995C32.1495 71.9995 31.6836 71.487 31.6836 70.8528V38.0504C31.6836 37.4162 32.1495 36.9037 32.7261 36.9037C33.3027 36.9037 33.7687 37.4162 33.7687 38.0504V68.915C39.3863 65.734 45.5337 64.4014 49.8674 63.8409C52.468 63.5013 55.0831 63.3507 57.7013 63.3892V28.0078C48.6209 24.6154 41.9552 26.9571 37.9279 29.5646C37.4299 29.8785 36.798 29.6927 36.5068 29.1513C36.2185 28.6099 36.3787 27.9116 36.8679 27.5848C41.3847 24.6602 48.9065 22.0303 59.1022 26.1081V26.1113C59.5158 26.2747 59.7924 26.7103 59.7895 27.194V64.5838C59.7895 64.9009 59.6701 65.2052 59.4604 65.4198C59.2508 65.6376 58.9683 65.7498 58.6799 65.7305C58.645 65.7305 55.0106 65.4839 50.0655 66.1278C45.5342 66.7172 38.9409 68.1843 33.2503 71.8458C33.0902 71.9483 32.9096 71.9995 32.7261 71.9995Z" fill="#0BA295"/>
<path d="M32.7264 71.9992C32.5401 71.9992 32.3595 71.9448 32.1993 71.8423C26.5089 68.1809 19.9154 66.7137 15.3842 66.1242C10.4393 65.4836 6.80476 65.7238 6.76972 65.727C6.48141 65.7463 6.19893 65.6341 5.98924 65.4195C5.77956 65.2017 5.66016 64.8974 5.66016 64.5803V27.1938C5.66016 26.7101 5.9339 26.2808 6.34743 26.1143C16.5461 22.0332 24.0706 24.6632 28.5877 27.591C29.0682 27.921 29.2197 28.6097 28.9343 29.1478C28.646 29.6828 28.0256 29.8686 27.5306 29.5675C23.5002 26.9599 16.8309 24.6118 7.75127 28.0075V63.3889C10.3693 63.3473 12.9873 63.4978 15.5882 63.8374C19.9215 64.3947 26.0694 65.7305 31.6869 68.9115V38.0502C31.6869 37.4159 32.1528 36.9034 32.7294 36.9034C33.306 36.9034 33.7719 37.416 33.7719 38.0502V70.8526C33.7719 71.1569 33.6642 71.4484 33.4662 71.663C33.271 71.8808 33.006 71.9994 32.7294 71.9994L32.7264 71.9992Z" fill="#0BA295"/>
<path d="M64.4116 71.9972H1.04253C0.465919 71.9972 0 71.4846 0 70.8504V32.6988C0 32.0645 0.465949 31.5488 1.04253 31.5488H6.70966C7.28627 31.5488 7.75219 32.0646 7.75219 32.6988C7.75219 33.3331 7.28624 33.8456 6.70966 33.8456H2.08514V69.7043H63.3689V33.8456H58.7444C58.1678 33.8456 57.7019 33.333 57.7019 32.6988C57.7019 32.0645 58.1678 31.5488 58.7444 31.5488H64.4116C64.9882 31.5488 65.4541 32.0646 65.4541 32.6988V70.8504C65.4541 71.1547 65.3463 71.4462 65.1483 71.6608C64.9532 71.8787 64.6882 71.9972 64.4116 71.9972Z" fill="#0BA295"/>
<path d="M26.628 42.2657C26.3281 42.2657 26.0427 42.1247 25.8447 41.8749C25.8243 41.8492 24.7031 40.491 22.6238 39.53C19.8397 38.2422 16.7237 38.2295 13.363 39.4947V39.4979C13.1009 39.6005 12.8097 39.5844 12.5563 39.4499C12.3059 39.3186 12.1137 39.0783 12.0205 38.7868C11.9302 38.4953 11.9506 38.1782 12.0758 37.9027C12.201 37.6272 12.4224 37.419 12.6874 37.3229C17.5536 35.4906 21.2757 36.3875 23.5436 37.4638C26.0306 38.6427 27.3586 40.2892 27.4139 40.3564L27.411 40.3596C27.6818 40.6992 27.7459 41.1797 27.577 41.5897C27.4081 41.9998 27.0386 42.2625 26.628 42.2657Z" fill="#0BA295"/>
<path d="M26.5187 51.6384C26.2187 51.6384 25.9333 51.4975 25.7353 51.2508C25.7149 51.2252 24.5937 49.867 22.5144 48.906C19.7304 47.6182 16.6143 47.6054 13.2536 48.8707C12.9886 48.9764 12.7003 48.9604 12.4469 48.8259C12.1965 48.6945 12.0014 48.4543 11.9111 48.1628C11.8208 47.8713 11.8412 47.5541 11.9664 47.2787C12.0917 47.0032 12.3101 46.795 12.578 46.6989C17.4442 44.8665 21.1664 45.7667 23.4342 46.8398C25.9212 48.0187 27.2492 49.6652 27.3045 49.7324L27.3016 49.7356C27.5724 50.0752 27.6365 50.5557 27.4676 50.9657C27.2987 51.3757 26.9264 51.6384 26.5187 51.6384Z" fill="#0BA295"/>
<path d="M26.4054 61.0134C26.1054 61.0134 25.82 60.8725 25.622 60.6258C25.6016 60.6002 24.4805 59.242 22.4011 58.281C19.6171 56.9932 16.501 56.9804 13.1403 58.2457C12.8753 58.3514 12.587 58.3354 12.3337 58.2009C12.0832 58.0663 11.8881 57.8293 11.7978 57.5378C11.7075 57.2463 11.7279 56.9291 11.8532 56.6537C11.9784 56.3782 12.1968 56.17 12.4647 56.0739C17.3309 54.2415 21.0531 55.1417 23.3209 56.2148C25.8079 57.3969 27.133 59.0434 27.1883 59.1106C27.4591 59.4502 27.5232 59.9307 27.3543 60.3407C27.1854 60.7507 26.8131 61.0134 26.4054 61.0134Z" fill="#0BA295"/>
<path d="M38.8237 41.6323C38.4131 41.6323 38.0432 41.3696 37.8744 40.9596C37.7055 40.5495 37.7695 40.0691 38.0404 39.7295C38.0957 39.659 39.4237 38.0157 41.9106 36.8369C44.1763 35.7605 47.901 34.8636 52.7669 36.6959L52.764 36.6927C53.029 36.7888 53.2503 36.997 53.3755 37.2725C53.5007 37.548 53.5211 37.8651 53.4308 38.1566C53.3377 38.4481 53.1455 38.6884 52.895 38.8197C52.6416 38.9543 52.3504 38.9703 52.0884 38.8646C44.036 35.831 39.6501 41.187 39.6099 41.2414V41.2446C39.4089 41.4913 39.1237 41.6355 38.8237 41.6323Z" fill="#0BA295"/>
<path d="M38.9359 51.0105C38.5252 51.0137 38.1525 50.7478 37.9836 50.3377C37.8147 49.9245 37.8788 49.4441 38.1525 49.1045C38.2078 49.034 39.5358 47.3907 42.0228 46.2119C44.2885 45.1355 48.0132 44.2386 52.879 46.0709L52.8761 46.0677C53.144 46.1638 53.3624 46.372 53.4877 46.6475C53.6129 46.923 53.6333 47.2401 53.543 47.5316C53.4527 47.8231 53.2576 48.0634 53.0072 48.1947C52.7538 48.3293 52.4655 48.3453 52.2005 48.2396C48.8399 46.9742 45.7238 46.9871 42.9397 48.2748C40.8516 49.2422 39.7275 50.6069 39.7188 50.6197C39.5208 50.8695 39.2358 51.0137 38.9359 51.0105Z" fill="#0BA295"/>
<path d="M39.0445 60.3855C38.6339 60.3855 38.2611 60.1228 38.0922 59.7096C37.9233 59.2995 37.9903 58.8159 38.2611 58.4795C38.3165 58.409 39.6444 56.7657 42.1314 55.5869C44.3971 54.5105 48.1218 53.6136 52.9876 55.4459L52.9847 55.4427C53.2527 55.5388 53.4711 55.747 53.5963 56.0225C53.7215 56.2948 53.7419 56.6151 53.6516 56.9066C53.5614 57.1981 53.3662 57.4352 53.1158 57.5697C52.8624 57.7043 52.5741 57.7203 52.3091 57.6146C48.9485 56.3492 45.8324 56.3621 43.0483 57.6498C40.9603 58.6172 39.8362 59.9819 39.8274 59.9947C39.6294 60.2445 39.3445 60.3855 39.0445 60.3855Z" fill="#0BA295"/>
<path d="M37.2785 31.6873H28.175C27.5984 31.6873 27.1296 31.1715 27.1296 30.5373V30.012C27.1237 28.1668 26.4772 26.3921 25.3211 25.05C22.5749 21.8274 21.8177 17.1313 23.3815 13.0664C24.9483 8.9982 28.5448 6.32981 32.5581 6.25929C35.3159 6.21124 37.9049 7.33881 39.8502 9.43382C43.7671 13.6911 43.8981 20.6006 40.1472 25.0338C38.9823 26.3953 38.33 28.1955 38.3242 30.0663V30.5403C38.3242 31.1746 37.8551 31.6873 37.2785 31.6873ZM29.2001 29.3905H36.2563C36.4048 27.177 37.2377 25.0851 38.621 23.4674C40.843 20.8695 41.4341 17.0607 40.1149 13.803C38.7986 10.5452 35.834 8.47584 32.5926 8.55276C28.2214 8.62964 24.6655 12.6082 24.6655 17.4192C24.6626 19.668 25.4402 21.8366 26.8439 23.48C28.2272 25.088 29.0603 27.1802 29.2001 29.3905Z" fill="#0BA295"/>
<path d="M37.2779 35.4397H28.1743C27.5977 35.4397 27.1289 34.924 27.1289 34.293V30.5354C27.1289 29.9012 27.5978 29.3887 28.1743 29.3887H37.2779C37.8545 29.3887 38.3233 29.9012 38.3233 30.5354V34.293C38.3233 34.5973 38.2126 34.8888 38.0175 35.1034C37.8195 35.318 37.5545 35.4397 37.2779 35.4397ZM29.2173 33.1429H36.2328L36.2357 31.6854H29.2173L29.2173 33.1429Z" fill="#0BA295"/>
<path d="M35.0383 39.1956H30.4138C28.5995 39.1956 27.1289 37.5779 27.1289 35.5822V34.2945C27.1289 33.6602 27.5949 33.1445 28.1714 33.1445H37.2779C37.8546 33.1445 38.3234 33.6603 38.3234 34.2945V35.5822C38.3205 37.5747 36.8496 39.1924 35.0383 39.1956ZM29.2227 35.4413V35.5822C29.2227 36.3062 29.7556 36.8956 30.4138 36.902H35.0383C35.6994 36.8988 36.2353 36.3094 36.2382 35.5822V35.4413H29.2227Z" fill="#0BA295"/>
<path d="M22.3539 12.0769C22.1705 12.0769 21.9899 12.0257 21.8297 11.9232L19.3136 10.3247C19.0748 10.1742 18.9001 9.92109 18.8273 9.62958C18.7574 9.33487 18.7952 9.02095 18.9321 8.75827C19.2204 8.20729 19.8582 8.0183 20.3591 8.33543L22.8752 9.93389C23.2829 10.1934 23.481 10.7251 23.3616 11.2248C23.2392 11.7278 22.8257 12.0769 22.3539 12.0769Z" fill="#0BA295"/>
<path d="M20.7486 18.662H17.8394C17.2657 18.662 16.7969 18.1494 16.7969 17.5152C16.7969 16.8809 17.2657 16.3652 17.8394 16.3652H20.7486C21.3253 16.3652 21.7912 16.881 21.7912 17.5152C21.7912 18.1495 21.3252 18.662 20.7486 18.662Z" fill="#0BA295"/>
<path d="M47.608 18.662H44.6988C44.1222 18.662 43.6562 18.1494 43.6562 17.5152C43.6562 16.8809 44.1222 16.3652 44.6988 16.3652H47.608C48.1846 16.3652 48.6505 16.881 48.6505 17.5152C48.6505 18.1495 48.1846 18.662 47.608 18.662Z" fill="#0BA295"/>
<path d="M43.0968 12.0769C42.625 12.0769 42.2115 11.7278 42.0891 11.2248C41.9697 10.7251 42.1678 10.1934 42.5755 9.93389L45.0916 8.33543C45.5925 8.0183 46.2302 8.2073 46.5186 8.75827C46.8069 9.30605 46.6351 10.0075 46.1371 10.3247L43.621 11.9232C43.4608 12.0257 43.2802 12.0769 43.0968 12.0769Z" fill="#0BA295"/>
<path d="M38.7144 7.25602C38.3416 7.25602 37.998 7.03499 37.8117 6.68262C37.6253 6.32705 37.6253 5.88819 37.8117 5.53265L39.2648 2.76495H39.2619C39.5502 2.21718 40.1909 2.02818 40.6889 2.34531C41.1869 2.66244 41.3587 3.36399 41.0704 3.91499L39.6172 6.68268C39.4309 7.03825 39.0871 7.25602 38.7144 7.25602Z" fill="#0BA295"/>
<path d="M32.7261 5.49366C32.1495 5.49366 31.6836 4.97791 31.6836 4.34369V1.14677C31.6836 0.512504 32.1495 0 32.7261 0C33.3027 0 33.7687 0.512537 33.7687 1.14677V4.34369C33.7687 4.648 33.6609 4.94272 33.4629 5.15734C33.2678 5.37197 33.0028 5.49366 32.7261 5.49366Z" fill="#0BA295"/>
<path d="M26.738 7.25609C26.3653 7.25609 26.0216 7.03826 25.8353 6.68268L24.3821 3.91499C24.0938 3.364 24.2656 2.66251 24.7636 2.34531C25.2616 2.02818 25.9022 2.21718 26.1906 2.76495L27.6438 5.53265H27.6408C27.8272 5.88822 27.8272 6.32708 27.6408 6.68262C27.4545 7.03499 27.1107 7.25609 26.738 7.25609Z" fill="#0BA295"/>
</svg>
